<svg aria-hidden="true" style="position: absolute; width: 0; height: 0; overflow: hidden;" version="1.1" xmlns="http://www.w3.org/2000/svg" xmlns:xlink="http://www.w3.org/1999/xlink">
    <defs>
        <symbol id="icon-logo" viewBox="0 0 144 32">
            <path d="M14.427 0.070c8.751-0.816 16.506 5.621 17.313 14.373s-5.637 16.5-14.391 17.298c-8.741 0.798-16.475-5.635-17.281-14.374s5.618-16.482 14.359-17.297zM17.6 30.058c7.814-0.937 13.385-8.034 12.442-15.846-0.942-7.812-8.042-13.379-15.854-12.432-7.806 0.947-13.366 8.039-12.424 15.845s8.031 13.37 15.836 12.434z"></path>
            <path d="M22.128 7.629l1.83-0.013c0.018 2.551 0.029 5.568 0.029 8.587 0 2.554-0.008 5.106-0.023 7.657l0.002-0.393-1.893 0.024-0.003-9.927-0.009-2.718c-1.057 2.006-2.258 3.935-3.401 5.893-0.725 1.241-1.399 2.664-2.295 3.781-0.116 0.042-0.251 0.066-0.391 0.066-0.099 0-0.195-0.012-0.287-0.035l0.008 0.002c-0.106-0.026-0.2-0.067-0.284-0.121l0.004 0.002c-0.485-0.386-5.034-8.379-5.76-9.591 0.186 1.438 0.069 3.006 0.068 4.457l-0.005 8.152-1.936 0.007c0.060-5.275-0.035-10.554 0.016-15.83l2.107 0.011c0.937 1.676 1.943 3.316 2.915 4.973 1.033 1.76 2.039 3.541 3.136 5.261 1.115-2.039 2.364-4.014 3.565-6.006 0.85-1.41 1.653-2.896 2.606-4.239zM119.051 11.394c0.373-0.026 0.757-0.035 1.131-0.028 1.395 0.025 2.822 0.771 3.776 1.76 1.191 1.233 1.744 2.953 1.704 4.648-0.040 1.726-0.688 3.366-1.957 4.55-1.126 1.049-2.568 1.61-4.112 1.552-1.766-0.067-2.938-0.811-4.123-2.075-0.046 0.724-0.032 1.456-0.039 2.181q0.013 2.161-0.005 4.323c-0.277 0.029-0.599 0.046-0.925 0.046-0.386 0-0.766-0.023-1.14-0.068l0.045 0.004c0.11-2.231 0.013-4.516 0.014-6.752 0-3.328 0.052-6.663-0.023-9.989l1.999-0.008c-0.038 0.742-0.029 1.492-0.040 2.235 1.082-1.351 1.986-2.002 3.696-2.379zM119.917 22.091c1.243-0.233 2.205-0.741 2.934-1.812 0.507-0.748 0.809-1.671 0.809-2.665 0-0.343-0.036-0.678-0.105-1l0.006 0.031c-0.223-1.121-0.887-2.18-1.862-2.791-0.768-0.482-1.598-0.614-2.486-0.59-1.232 0.233-2.23 0.672-2.968 1.745-0.696 1.011-0.996 2.45-0.761 3.654 0.233 1.184 0.926 2.174 1.88 2.795l0.017 0.010c0.788 0.496 1.621 0.639 2.535 0.623zM81.755 6.381c0.325 0.335 0.426 1.218 0.62 1.691-2.097 0.88-5.138 0.698-6.824 2.309-1.008 0.965-1.25 2.297-1.271 3.625 0.902-1.115 1.893-2.018 3.372-2.266 1.495-0.25 3.079 0.039 4.306 0.952 1.317 0.981 2.050 2.403 2.27 4.014 0.253 1.851-0.208 3.596-1.344 5.074-0.822 0.912-1.778 1.586-2.984 1.882-1.526 0.375-3.268 0.18-4.612-0.654-1.534-0.953-2.416-2.524-2.8-4.254-0.571-2.584-0.459-6.446 1.030-8.739 1.313-2.023 3.296-2.423 5.5-2.948 0.914-0.218 1.817-0.486 2.735-0.688zM78.266 22.102c1.298-0.192 2.265-0.503 3.072-1.619 0.792-1.094 1.048-2.475 0.802-3.79-0.198-1.062-0.756-2.032-1.668-2.633-0.529-0.354-1.172-0.577-1.865-0.61l-0.008-0c-1.264 0.141-2.304 0.402-3.145 1.445-0.788 0.978-1.126 2.3-0.952 3.541 0.159 1.131 0.777 2.22 1.706 2.894 0.629 0.456 1.303 0.656 2.058 0.773zM53.337 7.186c0.738-0.075 1.507-0.039 2.249-0.045-0.101 5.436 0.019 10.889-0.012 16.328l-1.958-0.020 0.004-9.616c-0.005-1.103-0.028-2.206 0.039-3.307-1.805 3.333-3.432 6.811-5.409 10.043l-1.272-0.007c-1.947-3.191-3.566-6.63-5.367-9.909 0.071 1.504 0.024 3.031 0.025 4.538l0.004 8.281c-0.652-0.017-1.303 0.026-1.957-0.006l0.002-9.906c0.001-2.129-0.040-4.272 0.076-6.398h2.179c0.619 1.062 1.145 2.2 1.708 3.293 1.305 2.537 2.597 5.102 4.005 7.582 2.069-3.508 3.706-7.287 5.685-10.851zM63.406 11.398q0.448-0.025 0.897-0.034c1.567-0.026 3.13 0.402 4.26 1.538 1.511 1.52 1.662 3.434 1.662 5.457-3.263 0.042-6.53-0.003-9.793 0.012 0.101 0.538 0.201 1.054 0.457 1.545 0.514 0.976 1.381 1.707 2.427 2.033l0.029 0.008c1.268 0.384 2.544 0.159 3.685-0.471 0.384-0.26 0.733-0.564 1.090-0.859 0.512 0.293 1.030 0.538 1.573 0.772-0.805 1.086-1.843 1.878-3.157 2.237-1.682 0.461-3.732 0.28-5.247-0.612-1.309-0.782-2.265-2.042-2.632-3.533l-0.008-0.039c-0.448-1.803-0.197-3.775 0.781-5.36 0.944-1.53 2.267-2.285 3.978-2.694zM60.453 16.835c1.107-0.010 2.417-0.015 3.727-0.015 0.394 0 0.787 0 1.18 0.001l-0.060-0 3.021 0.002c-0.294-1.24-0.59-2.389-1.744-3.115-0.844-0.53-1.867-0.613-2.839-0.53-1.049 0.241-1.933 0.72-2.533 1.644-0.405 0.626-0.584 1.298-0.754 2.013zM103.994 11.394q0.44-0.022 0.88-0.029c1.563-0.016 3.126 0.447 4.241 1.587 1.468 1.502 1.604 3.418 1.596 5.4-3.248 0.049-6.505 0.009-9.756 0.018 0.044 0.592 0.147 1.103 0.425 1.637 0.512 0.987 1.361 1.639 2.422 1.95 1.419 0.417 2.71 0.11 3.963-0.587 0.306-0.21 0.578-0.468 0.857-0.715 0.515 0.277 1.038 0.502 1.58 0.718-0.849 1.116-1.907 1.926-3.28 2.274-1.707 0.433-3.666 0.268-5.189-0.652-1.352-0.816-2.279-2.162-2.635-3.695-0.406-1.751-0.123-3.763 0.856-5.281s2.316-2.252 4.040-2.624zM100.937 16.831c1.547-0.004 3.096-0.025 4.643-0.009l3.279-0.002c-0.34-1.274-0.697-2.516-1.93-3.218-0.763-0.433-1.694-0.508-2.556-0.421-1.023 0.169-1.888 0.554-2.523 1.41-0.504 0.677-0.718 1.434-0.912 2.24zM137.736 11.566c1.978-0.092 3.987-0.026 5.969-0.018-0.101 3.962-0.011 7.952-0.013 11.917l-2.039-0.022-0.002-4.071c-0.974-0.006-2.256-0.197-3.184 0.025-0.291 0.069-0.342 0.215-0.505 0.441-0.688 1.221-1.454 2.398-2.144 3.621q-1.157 0.025-2.313 0.006c0.755-1.417 1.779-3.218 2.778-4.445-0.165-0.079-0.28-0.14-0.394-0.203l0.042 0.021c-0.871-0.481-1.537-1.253-1.792-2.224-0.266-1.010-0.122-2.164 0.42-3.062 0.729-1.21 1.871-1.676 3.177-1.984zM139.826 17.662c0.602-0.005 1.216 0.014 1.817-0.029q-0.011-2.115 0.011-4.229c-1.196-0.004-2.407-0.037-3.601 0.029-0.754 0.236-1.342 0.491-1.749 1.217-0.27 0.483-0.342 1.12-0.16 1.644 0.176 0.508 0.583 0.864 1.063 1.082 0.81 0.366 1.752 0.294 2.619 0.286zM88.368 11.675c2.582-0.094 5.187-0.034 7.771-0.038l-0.012 11.825c-0.644-0.009-1.29-0.037-1.929 0.051l-0.009-10.017-1.095 0.044c-0.978-0.048-1.978 0.016-2.958 0.039-0.027 2.384-0.037 7.325-1.706 9.089-0.832 0.88-1.774 0.969-2.91 0.978-0.009-0.622-0.042-1.234-0.087-1.855 0.297-0.027 0.612-0.048 0.901-0.121 1.797-0.454 1.829-6.391 1.874-7.888 0.017-0.584-0.112-1.633 0.16-2.108zM130.25 11.588l0.264-0.016c0.032 0.043 0.077 0.079 0.096 0.128 0.089 0.233-0.002 10.564-0.001 11.758l-1.732 0.012-0.128-0.026c-0.277-0.501 0.001-10.345-0.086-11.833 0.529 0.006 1.058-0.011 1.586-0.024zM128.627 7.128l1.992-0.005c-0.022 0.707-0.006 1.414 0.005 2.121l-2.051 0.016q0.046-1.066 0.054-2.13z"></path>
        </symbol>
        <symbol id="icon-arrow-back" viewBox="0 0 32 32">
            <path d="M28 14.667h-19.448l7.057-7.057-1.885-1.885-10.276 10.276 10.276 10.276 1.885-1.885-7.057-7.057h19.448v-2.667z"></path>
        </symbol>
        <symbol id="icon-arrow_down" viewBox="0 0 32 32">
            <path d="M21.724 11.057l-5.724 5.724-5.724-5.724-1.885 1.885 7.609 7.609 7.609-7.609-1.885-1.885z"></path>
        </symbol>
        <symbol id="icon-chevron-left" viewBox="0 0 32 32">
            <path d="M17.724 8.391l-7.609 7.609 7.609 7.609 1.885-1.885-5.724-5.724 5.724-5.724-1.885-1.885z"></path>
        </symbol>
        <symbol id="icon-chevron-right" viewBox="0 0 32 32">
            <path d="M12.943 22.6l7.609-7.609-7.609-7.609-1.885 1.885 5.724 5.724-5.724 5.724 1.885 1.885z"></path>
        </symbol>
        <symbol id="icon-icon-arrow_up" viewBox="0 0 32 32">
            <path d="M8.391 19.057l1.885 1.885 5.724-5.724 5.724 5.724 1.885-1.885-7.609-7.609-7.609 7.609z"></path>
        </symbol>
        <symbol id="icon-close1" viewBox="0 0 32 32">
            <path d="M21.589 8.459l-5.657 5.656-5.656-5.656-1.885 1.885 5.656 5.656-5.656 5.656 1.885 1.885 5.656-5.656 5.657 5.656 1.885-1.885-5.656-5.656 5.656-5.656-1.885-1.885z"></path>
        </symbol>
        <symbol id="icon-down-arrow-alt" viewBox="0 0 32 32">
            <path d="M24.943 16.943l-1.885-1.885-5.724 5.724v-12.781h-2.667v12.781l-5.724-5.724-1.885 1.885 8.943 8.943 8.943-8.943z"></path>
        </symbol>
        <symbol id="icon-facebook" viewBox="0 0 32 32">
            <path d="M29.333 16.405c0-7.409-5.969-13.415-13.333-13.415s-13.333 6.005-13.333 13.413c0 6.697 4.876 12.247 11.251 13.253v-9.373h-3.387v-3.88h3.387v-2.955c0-3.361 1.989-5.219 5.036-5.219 1.459 0 2.984 0.261 2.984 0.261v3.301h-1.68c-1.657 0-2.173 1.035-2.173 2.096v2.516h3.697l-0.591 3.877h-3.107v9.373c6.373-1.005 11.249-6.555 11.249-13.251z"></path>
        </symbol>
        <symbol id="icon-instagram" viewBox="0 0 32 32">
            <path d="M15.999 6.16c3.205 0 3.585 0.016 4.845 0.072 1.173 0.052 1.804 0.248 2.227 0.413 0.557 0.215 0.96 0.477 1.377 0.893 0.423 0.423 0.68 0.821 0.9 1.379 0.164 0.423 0.36 1.060 0.413 2.227 0.056 1.267 0.069 1.645 0.069 4.847s-0.013 3.587-0.071 4.847c-0.051 1.173-0.248 1.804-0.412 2.227-0.202 0.54-0.507 1-0.894 1.377l-0.001 0.001c-0.423 0.423-0.821 0.68-1.379 0.9-0.421 0.164-1.059 0.36-2.227 0.413-1.265 0.056-1.644 0.069-4.845 0.069s-3.587-0.013-4.847-0.071c-1.173-0.051-1.805-0.248-2.227-0.412-0.541-0.203-1.001-0.508-1.378-0.895l-0.001-0.001c-0.388-0.378-0.694-0.838-0.891-1.352l-0.009-0.026c-0.164-0.421-0.36-1.059-0.413-2.227-0.055-1.265-0.069-1.644-0.069-4.847 0-3.2 0.013-3.584 0.071-4.845 0.052-1.173 0.248-1.805 0.413-2.227 0.215-0.559 0.477-0.96 0.893-1.379 0.378-0.388 0.838-0.695 1.353-0.891l0.026-0.009c0.423-0.164 1.060-0.36 2.227-0.413 1.261-0.055 1.64-0.069 4.847-0.069zM15.999 4c-3.257 0-3.665 0.015-4.945 0.071-1.275 0.057-2.151 0.263-2.911 0.559-0.833 0.318-1.542 0.79-2.126 1.386l-0.001 0.001c-0.596 0.584-1.068 1.293-1.373 2.084l-0.014 0.040c-0.296 0.764-0.503 1.635-0.56 2.909-0.053 1.285-0.069 1.693-0.069 4.951 0 3.259 0.013 3.665 0.071 4.945 0.056 1.275 0.263 2.152 0.557 2.911 0.318 0.833 0.79 1.542 1.386 2.126l0.001 0.001c0.584 0.595 1.293 1.065 2.084 1.369l0.040 0.014c0.764 0.296 1.636 0.503 2.911 0.559 1.28 0.056 1.687 0.071 4.944 0.071 3.259 0 3.667-0.013 4.947-0.071 1.273-0.056 2.151-0.263 2.909-0.559 0.831-0.317 1.539-0.788 2.122-1.382l0.001-0.001c0.665-0.667 1.079-1.335 1.383-2.123 0.296-0.764 0.501-1.635 0.559-2.911 0.056-1.28 0.071-1.687 0.071-4.944s-0.015-3.665-0.071-4.945c-0.057-1.275-0.263-2.151-0.559-2.911-0.306-0.837-0.775-1.55-1.372-2.132l-0.001-0.001c-0.584-0.594-1.292-1.064-2.083-1.368l-0.040-0.014c-0.764-0.296-1.635-0.503-2.911-0.559-1.284-0.061-1.691-0.076-4.948-0.076z"></path>
            <path d="M15.997 9.836c-3.337 0.088-6.008 2.814-6.008 6.163s2.671 6.076 6 6.163l0.008 0c3.365-0.051 6.073-2.791 6.073-6.163s-2.708-6.112-6.069-6.163l-0.005-0zM15.997 19.996c-2.208 0-3.997-1.79-3.997-3.997s1.79-3.997 3.997-3.997v0c2.208 0 3.998 1.79 3.998 3.998s-1.79 3.998-3.998 3.998v0zM23.843 9.592c0.001 0.018 0.001 0.040 0.001 0.062 0 0.795-0.645 1.44-1.44 1.44s-1.44-0.645-1.44-1.44c0-0.022 0-0.043 0.001-0.065l-0 0.003c0.034-0.768 0.665-1.378 1.439-1.378s1.405 0.61 1.439 1.375l0 0.003z"></path>
        </symbol>
        <symbol id="icon-left-arrow-alt" viewBox="0 0 32 32">
            <path d="M16.943 23.057l-5.724-5.724h12.781v-2.667h-12.781l5.724-5.724-1.885-1.885-8.943 8.943 8.943 8.943 1.885-1.885z"></path>
        </symbol>
        <symbol id="icon-menu" viewBox="0 0 32 32">
            <path d="M5.333 8h21.333v2.667h-21.333v-2.667zM5.333 14.667h21.333v2.667h-21.333v-2.667zM5.333 21.333h21.333v2.667h-21.333v-2.667z"></path>
        </symbol>
        <symbol id="icon-minus" viewBox="0 0 32 32">
            <path d="M6.667 14.667h18.667v2.667h-18.667v-2.667z"></path>
        </symbol>
        <symbol id="icon-plus" viewBox="0 0 32 32">
            <path d="M25.333 14.667h-8v-8h-2.667v8h-8v2.667h8v8h2.667v-8h8v-2.667z"></path>
        </symbol>
        <symbol id="icon-right-arrow-alt" viewBox="0 0 32 32">
            <path d="M15.057 23.057l1.885 1.885 8.943-8.943-8.943-8.943-1.885 1.885 5.724 5.724h-12.781v2.667h12.781l-5.724 5.724z"></path>
        </symbol>
        <symbol id="icon-star" viewBox="0 0 32 32">
            <path d="M8.688 19.097l-1.987 8.603c-0.023 0.092-0.036 0.197-0.036 0.306 0 0.735 0.596 1.331 1.331 1.331 0.277 0 0.535-0.085 0.748-0.23l-0.005 0.003 7.26-4.84 7.26 4.84c0.208 0.14 0.463 0.223 0.738 0.223 0.737 0 1.335-0.598 1.335-1.335 0-0.129-0.018-0.254-0.053-0.372l0.002 0.009-2.439-8.533 6.048-5.443c0.271-0.245 0.441-0.598 0.441-0.991 0-0.699-0.538-1.273-1.223-1.329l-0.005-0-7.601-0.605-3.289-7.281c-0.212-0.469-0.676-0.789-1.215-0.789s-1.002 0.32-1.211 0.781l-0.003 0.008-3.289 7.281-7.601 0.604c-0.69 0.056-1.228 0.63-1.228 1.329 0 0.374 0.154 0.712 0.402 0.955l0 0 5.619 5.476zM12.492 13.329c0.495-0.040 0.91-0.346 1.106-0.773l0.003-0.008 2.399-5.308 2.399 5.308c0.199 0.435 0.614 0.741 1.105 0.781l0.005 0 5.296 0.42-4.361 3.925c-0.379 0.341-0.529 0.867-0.391 1.357l1.671 5.847-4.981-3.321c-0.208-0.141-0.464-0.225-0.739-0.225s-0.532 0.084-0.744 0.228l0.005-0.003-5.205 3.471 1.4-6.061c0.022-0.090 0.034-0.193 0.034-0.299 0-0.374-0.154-0.712-0.402-0.954l-0-0-4.051-3.949 5.453-0.435z"></path>
        </symbol>
        <symbol id="star-empty" viewBox="0 0 34 32">
            <title>star-empty</title>
            <path class="path-star-empty"
                  d="M33.412 12.395l-11.842-1.021-4.628-10.904-4.628 10.92-11.842 1.005 8.993 7.791-2.701 11.579 10.179-6.144 10.179 6.144-2.685-11.579 8.976-7.791zM16.941 22.541l-6.193 3.739 1.647-7.049-5.468-4.744 7.214-0.626 2.8-6.638 2.816 6.654 7.214 0.626-5.468 4.744 1.647 7.049-6.209-3.755z"/>
        </symbol>
        <symbol id="star-half" viewBox="0 0 34 32">
            <title>star-half</title>
            <path class="path-star-half"
                  d="M 33.412,12.395 21.57,11.374 16.942,0.47 12.314,11.39 0.472,12.395 9.465,20.186 6.764,31.765 16.943,25.621 27.122,31.765 24.437,20.186 33.413,12.395 Z M 16.941,22.541 c 0,0 -0.297971,-14.6455833 0,-15.318 l 2.816,6.654 7.214,0.626 -5.468,4.744 1.647,7.049 z"/>
        </symbol>
        <symbol id="star-filled" viewBox="0 0 34 32">
            <title>star-filled</title>
            <path class="path-star-filled"
                  d="M16.941 25.621l10.179 6.144-2.701-11.579 8.993-7.791-11.842-1.005-4.628-10.92-4.628 10.92-11.842 1.005 8.993 7.791-2.701 11.579z"/>
        </symbol>
        <symbol id="icon-up-arrow-alt" viewBox="0 0 32 32">
            <path d="M14.667 11.219v12.781h2.667v-12.781l5.724 5.724 1.885-1.885-8.943-8.943-8.943 8.943 1.885 1.885 5.724-5.724z"></path>
        </symbol>
        <symbol id="icon-youtube" viewBox="0 0 32 32">
            <path d="M28.791 9.604c-0.317-1.149-1.202-2.035-2.326-2.349l-0.023-0.006c-2.088-0.573-10.44-0.583-10.44-0.583s-8.353-0.009-10.443 0.539c-1.146 0.334-2.029 1.222-2.349 2.347l-0.006 0.024c-0.551 2.088-0.556 6.419-0.556 6.419s-0.005 4.352 0.541 6.419c0.307 1.143 1.207 2.045 2.351 2.353 2.109 0.573 10.44 0.583 10.44 0.583s8.353 0.009 10.441-0.537c1.148-0.319 2.035-1.204 2.35-2.327l0.006-0.024c0.552-2.087 0.556-6.416 0.556-6.416s0.027-4.353-0.543-6.441zM13.328 20.007l0.007-8 6.943 4.007-6.949 3.993z"></path>
        </symbol>
    </defs>
</svg>