<svg aria-hidden="true" style="position: absolute; width: 0; height: 0; overflow: hidden;" version="1.1" xmlns="http://www.w3.org/2000/svg" xmlns:xlink="http://www.w3.org/1999/xlink">
<defs>
<symbol id="icon-icon-logo" viewBox="0 0 75 32">
<path d="M8.562 8.276c0.24-0.026 0.518-0.040 0.8-0.040 4.401 0 7.968 3.567 7.968 7.968 0 4.161-3.19 7.578-7.258 7.937l-0.030 0.002c-0.204 0.018-0.441 0.029-0.68 0.029-4.401 0-7.968-3.567-7.968-7.968 0-4.119 3.125-7.508 7.134-7.925l0.034-0.003zM10.151 23.3c3.603-0.394 6.382-3.421 6.382-7.096 0-3.941-3.195-7.136-7.136-7.136-0.334 0-0.663 0.023-0.985 0.067l0.037-0.004c-3.512 0.484-6.189 3.466-6.189 7.073 0 3.941 3.195 7.136 7.136 7.136 0.266 0 0.528-0.015 0.786-0.043l-0.032 0.003z"></path>
<path d="M12.42 12.063l0.917-0.006c0.018 2.647 0.020 5.294 0.004 7.941l-0.948 0.012-0.002-4.974-0.004-1.362c-0.53 1.004-1.131 1.972-1.704 2.953-0.364 0.622-0.7 1.335-1.15 1.893-0.059 0.022-0.127 0.034-0.197 0.034-0.049 0-0.096-0.006-0.142-0.017l0.004 0.001c-0.053-0.013-0.1-0.034-0.142-0.061l0.002 0.001c-0.243-0.194-2.522-4.198-2.886-4.805 0.093 0.72 0.036 1.506 0.035 2.233l-0.003 4.084-0.97 0.003c0.029-2.643-0.018-5.287 0.008-7.931l1.056 0.005c0.469 0.84 0.973 1.662 1.46 2.492 0.517 0.882 1.021 1.774 1.571 2.636 0.56-1.022 1.185-2.012 1.787-3.010 0.425-0.707 0.828-1.451 1.305-2.124zM60.98 13.949c0.187-0.012 0.379-0.018 0.566-0.014 0.7 0.012 1.413 0.387 1.892 0.882 0.596 0.618 0.873 1.479 0.853 2.329-0.020 0.865-0.344 1.686-0.98 2.28-0.508 0.483-1.197 0.78-1.954 0.78-0.037 0-0.074-0.001-0.111-0.002l0.005 0c-0.884-0.034-1.471-0.406-2.065-1.040-0.023 0.363-0.016 0.729-0.020 1.093 0.004 0.722 0.003 1.444-0.004 2.165-0.336 0.034-0.676 0.030-1.012-0.009 0.055-1.118 0.006-2.262 0.006-3.383 0-1.667 0.027-3.339-0.011-5.004l1.002-0.004c-0.020 0.372-0.015 0.747-0.020 1.12 0.542-0.677 0.995-1.004 1.852-1.192zM61.414 19.309c0.622-0.117 1.105-0.372 1.47-0.908 0.357-0.535 0.485-1.191 0.356-1.82-0.112-0.562-0.444-1.092-0.933-1.398-0.385-0.242-0.8-0.308-1.244-0.296-0.618 0.117-1.118 0.337-1.488 0.875-0.262 0.393-0.419 0.877-0.419 1.397 0 0.153 0.014 0.304 0.040 0.45l-0.002-0.015c0.118 0.593 0.465 1.088 0.943 1.399l0.008 0.005c0.395 0.249 0.812 0.32 1.27 0.312zM42.294 11.438c0.164 0.167 0.213 0.61 0.311 0.847-1.051 0.441-2.574 0.35-3.42 1.157-0.505 0.483-0.626 1.151-0.636 1.816 0.452-0.558 0.948-1.011 1.689-1.135 0.749-0.124 1.543 0.020 2.158 0.477 0.66 0.492 1.028 1.204 1.138 2.011 0.023 0.146 0.035 0.314 0.035 0.485 0 0.779-0.267 1.496-0.715 2.064l0.005-0.007c-0.412 0.457-0.892 0.795-1.495 0.942-0.764 0.188-1.637 0.091-2.311-0.327-0.768-0.477-1.211-1.265-1.402-2.131-0.287-1.295-0.231-3.229 0.516-4.379 0.658-1.013 1.652-1.214 2.756-1.477 0.459-0.108 0.911-0.243 1.371-0.344zM40.548 19.315c0.651-0.096 1.134-0.252 1.539-0.812 0.397-0.548 0.524-1.24 0.402-1.899-0.099-0.532-0.379-1.018-0.836-1.318-0.265-0.177-0.587-0.29-0.934-0.306l-0.004-0c-0.633 0.071-1.154 0.202-1.575 0.724-0.312 0.394-0.5 0.899-0.5 1.447 0 0.115 0.008 0.229 0.025 0.34l-0.002-0.013c0.080 0.566 0.389 1.112 0.855 1.45 0.315 0.228 0.652 0.329 1.031 0.388zM28.056 11.841c0.37-0.036 0.755-0.019 1.127-0.021-0.051 2.724 0.009 5.455-0.006 8.18l-0.981-0.010 0.002-4.818c-0.003-0.553-0.014-1.106 0.020-1.657-0.904 1.669-1.719 3.412-2.709 5.031l-0.637-0.004c-0.975-1.599-1.787-3.322-2.689-4.964 0.036 0.753 0.012 1.518 0.012 2.273l0.002 4.148c-0.327-0.009-0.652 0.013-0.98-0.003v-4.963c0.002-1.067-0.020-2.14 0.039-3.206h1.091c0.311 0.533 0.574 1.102 0.856 1.651 0.654 1.271 1.301 2.556 2.006 3.799 1.037-1.758 1.858-3.652 2.849-5.437zM33.101 13.951c0.149-0.008 0.3-0.013 0.449-0.018 0.786-0.012 1.568 0.202 2.133 0.772 0.758 0.761 0.834 1.72 0.834 2.734-1.636 0.020-3.271-0.002-4.907 0.005 0.051 0.27 0.101 0.528 0.229 0.775 0.256 0.492 0.7 0.86 1.23 1.022 0.636 0.192 1.275 0.080 1.846-0.236 0.192-0.131 0.367-0.284 0.546-0.431 0.257 0.147 0.516 0.269 0.788 0.387-0.404 0.544-0.924 0.94-1.581 1.12-0.843 0.231-1.87 0.141-2.628-0.306-0.656-0.392-1.136-1.023-1.32-1.77l-0.004-0.020c-0.224-0.904-0.099-1.892 0.391-2.686 0.473-0.766 1.136-1.145 1.994-1.349zM31.621 16.676c0.809-0.007 1.62-0.009 2.429-0.007l1.513 0.001c-0.148-0.621-0.295-1.196-0.873-1.561-0.423-0.266-0.936-0.307-1.422-0.266-0.526 0.122-0.969 0.361-1.269 0.824-0.203 0.314-0.293 0.651-0.378 1.009zM53.436 13.949c0.147-0.007 0.293-0.012 0.44-0.014 0.784-0.009 1.566 0.223 2.125 0.795 0.736 0.753 0.804 1.712 0.8 2.705-1.628 0.025-3.26 0.005-4.889 0.009 0.022 0.298 0.075 0.553 0.213 0.82 0.257 0.494 0.682 0.822 1.213 0.978 0.711 0.209 1.358 0.054 1.986-0.294 0.154-0.106 0.29-0.235 0.429-0.358 0.258 0.139 0.52 0.251 0.791 0.359-0.425 0.56-0.955 0.965-1.643 1.14-0.855 0.217-1.836 0.133-2.6-0.326-0.662-0.412-1.141-1.064-1.316-1.832l-0.004-0.020c-0.204-0.877-0.062-1.885 0.428-2.646s1.161-1.128 2.025-1.315zM51.905 16.673c0.775-0.002 1.551-0.012 2.326-0.004h1.643c-0.171-0.64-0.349-1.262-0.967-1.613-0.382-0.218-0.849-0.254-1.281-0.211-0.513 0.084-0.946 0.277-1.264 0.706-0.252 0.34-0.36 0.719-0.457 1.123zM70.342 14.036c0.991-0.046 1.997-0.012 2.991-0.009-0.051 1.985-0.005 3.983-0.006 5.971l-1.022-0.012v-2.039c-0.489-0.003-1.131-0.098-1.596 0.012-0.145 0.036-0.171 0.108-0.252 0.221-0.345 0.612-0.729 1.202-1.075 1.813-0.386 0.009-0.772 0.010-1.158 0.003 0.378-0.709 0.891-1.612 1.391-2.227-0.083-0.040-0.141-0.070-0.198-0.102l0.022 0.011c-0.436-0.241-0.771-0.628-0.898-1.115-0.042-0.154-0.065-0.33-0.065-0.512 0-0.377 0.102-0.729 0.28-1.032l-0.005 0.010c0.365-0.606 0.938-0.839 1.592-0.994zM71.389 17.090c0.302-0.002 0.61 0.007 0.91-0.014-0.004-0.707-0.002-1.413 0.006-2.118-0.599-0.003-1.207-0.018-1.804 0.014-0.378 0.118-0.673 0.245-0.876 0.61-0.082 0.146-0.13 0.32-0.13 0.505 0 0.114 0.018 0.224 0.052 0.326l-0.002-0.007c0.088 0.254 0.292 0.433 0.532 0.541 0.405 0.183 0.877 0.148 1.312 0.143zM45.609 14.091c1.293-0.047 2.598-0.017 3.893-0.019l-0.006 5.924c-0.323-0.004-0.646-0.018-0.966 0.026l-0.004-5.019-0.549 0.022c-0.49-0.025-0.99 0.008-1.482 0.020-0.013 1.194-0.018 3.67-0.854 4.554-0.418 0.44-0.889 0.485-1.458 0.491-0.005-0.311-0.021-0.62-0.044-0.93 0.149-0.014 0.307-0.024 0.452-0.061 0.9-0.227 0.916-3.202 0.939-3.952 0.009-0.293-0.056-0.818 0.080-1.056zM66.592 14.046l0.133-0.007c0.015 0.021 0.037 0.039 0.047 0.064 0.044 0.116-0.001 5.292 0 5.891l-0.868 0.006-0.064-0.013c-0.139-0.251 0-5.182-0.043-5.929 0.265 0.004 0.53-0.005 0.795-0.012zM65.778 11.812l0.999-0.004c-0.011 0.355-0.003 0.708 0.002 1.063l-1.027 0.007c0.014-0.356 0.023-0.711 0.027-1.067z"></path>
</symbol>
<symbol id="icon-arrow-back" viewBox="0 0 32 32">
<path d="M28 14.667h-19.448l7.057-7.057-1.885-1.885-10.276 10.276 10.276 10.276 1.885-1.885-7.057-7.057h19.448v-2.667z"></path>
</symbol>
<symbol id="icon-icon-arrow_down" viewBox="0 0 32 32">
<path d="M21.724 11.057l-5.724 5.724-5.724-5.724-1.885 1.885 7.609 7.609 7.609-7.609-1.885-1.885z"></path>
</symbol>
<symbol id="icon-chevron-left" viewBox="0 0 32 32">
<path d="M17.724 8.391l-7.609 7.609 7.609 7.609 1.885-1.885-5.724-5.724 5.724-5.724-1.885-1.885z"></path>
</symbol>
<symbol id="icon-chevron-right" viewBox="0 0 32 32">
<path d="M12.943 22.6l7.609-7.609-7.609-7.609-1.885 1.885 5.724 5.724-5.724 5.724 1.885 1.885z"></path>
</symbol>
<symbol id="icon-icon-arrow_up" viewBox="0 0 32 32">
<path d="M8.391 19.057l1.885 1.885 5.724-5.724 5.724 5.724 1.885-1.885-7.609-7.609-7.609 7.609z"></path>
</symbol>
<symbol id="icon-close" viewBox="0 0 32 32">
<path d="M21.589 8.459l-5.657 5.656-5.656-5.656-1.885 1.885 5.656 5.656-5.656 5.656 1.885 1.885 5.656-5.656 5.657 5.656 1.885-1.885-5.656-5.656 5.656-5.656-1.885-1.885z"></path>
</symbol>
<symbol id="icon-down-arrow-alt" viewBox="0 0 32 32">
<path d="M24.943 16.943l-1.885-1.885-5.724 5.724v-12.781h-2.667v12.781l-5.724-5.724-1.885 1.885 8.943 8.943 8.943-8.943z"></path>
</symbol>
<symbol id="icon-facebook" viewBox="0 0 32 32">
<path d="M29.333 16.405c0-7.409-5.969-13.415-13.333-13.415s-13.333 6.005-13.333 13.413c0 6.697 4.876 12.247 11.251 13.253v-9.373h-3.387v-3.88h3.387v-2.955c0-3.361 1.989-5.219 5.036-5.219 1.459 0 2.984 0.261 2.984 0.261v3.301h-1.68c-1.657 0-2.173 1.035-2.173 2.096v2.516h3.697l-0.591 3.877h-3.107v9.373c6.373-1.005 11.249-6.555 11.249-13.251z"></path>
</symbol>
<symbol id="icon-instagram" viewBox="0 0 32 32">
<path d="M15.999 6.16c3.205 0 3.585 0.016 4.845 0.072 1.173 0.052 1.804 0.248 2.227 0.413 0.557 0.215 0.96 0.477 1.377 0.893 0.423 0.423 0.68 0.821 0.9 1.379 0.164 0.423 0.36 1.060 0.413 2.227 0.056 1.267 0.069 1.645 0.069 4.847s-0.013 3.587-0.071 4.847c-0.051 1.173-0.248 1.804-0.412 2.227-0.202 0.54-0.507 1-0.894 1.377l-0.001 0.001c-0.423 0.423-0.821 0.68-1.379 0.9-0.421 0.164-1.059 0.36-2.227 0.413-1.265 0.056-1.644 0.069-4.845 0.069s-3.587-0.013-4.847-0.071c-1.173-0.051-1.805-0.248-2.227-0.412-0.541-0.203-1.001-0.508-1.378-0.895l-0.001-0.001c-0.388-0.378-0.694-0.838-0.891-1.352l-0.009-0.026c-0.164-0.421-0.36-1.059-0.413-2.227-0.055-1.265-0.069-1.644-0.069-4.847 0-3.2 0.013-3.584 0.071-4.845 0.052-1.173 0.248-1.805 0.413-2.227 0.215-0.559 0.477-0.96 0.893-1.379 0.378-0.388 0.838-0.695 1.353-0.891l0.026-0.009c0.423-0.164 1.060-0.36 2.227-0.413 1.261-0.055 1.64-0.069 4.847-0.069zM15.999 4c-3.257 0-3.665 0.015-4.945 0.071-1.275 0.057-2.151 0.263-2.911 0.559-0.833 0.318-1.542 0.79-2.126 1.386l-0.001 0.001c-0.596 0.584-1.068 1.293-1.373 2.084l-0.014 0.040c-0.296 0.764-0.503 1.635-0.56 2.909-0.053 1.285-0.069 1.693-0.069 4.951 0 3.259 0.013 3.665 0.071 4.945 0.056 1.275 0.263 2.152 0.557 2.911 0.318 0.833 0.79 1.542 1.386 2.126l0.001 0.001c0.584 0.595 1.293 1.065 2.084 1.369l0.040 0.014c0.764 0.296 1.636 0.503 2.911 0.559 1.28 0.056 1.687 0.071 4.944 0.071 3.259 0 3.667-0.013 4.947-0.071 1.273-0.056 2.151-0.263 2.909-0.559 0.831-0.317 1.539-0.788 2.122-1.382l0.001-0.001c0.665-0.667 1.079-1.335 1.383-2.123 0.296-0.764 0.501-1.635 0.559-2.911 0.056-1.28 0.071-1.687 0.071-4.944s-0.015-3.665-0.071-4.945c-0.057-1.275-0.263-2.151-0.559-2.911-0.306-0.837-0.775-1.55-1.372-2.132l-0.001-0.001c-0.584-0.594-1.292-1.064-2.083-1.368l-0.040-0.014c-0.764-0.296-1.635-0.503-2.911-0.559-1.284-0.061-1.691-0.076-4.948-0.076z"></path>
<path d="M15.997 9.836c-3.337 0.088-6.008 2.814-6.008 6.163s2.671 6.076 6 6.163l0.008 0c3.365-0.051 6.073-2.791 6.073-6.163s-2.708-6.112-6.069-6.163l-0.005-0zM15.997 19.996c-2.208 0-3.997-1.79-3.997-3.997s1.79-3.997 3.997-3.997v0c2.208 0 3.998 1.79 3.998 3.998s-1.79 3.998-3.998 3.998v0zM23.843 9.592c0.001 0.018 0.001 0.040 0.001 0.062 0 0.795-0.645 1.44-1.44 1.44s-1.44-0.645-1.44-1.44c0-0.022 0-0.043 0.001-0.065l-0 0.003c0.034-0.768 0.665-1.378 1.439-1.378s1.405 0.61 1.439 1.375l0 0.003z"></path>
</symbol>
<symbol id="icon-left-arrow-alt" viewBox="0 0 32 32">
<path d="M16.943 23.057l-5.724-5.724h12.781v-2.667h-12.781l5.724-5.724-1.885-1.885-8.943 8.943 8.943 8.943 1.885-1.885z"></path>
</symbol>
<symbol id="icon-menu" viewBox="0 0 32 32">
<path d="M5.333 8h21.333v2.667h-21.333v-2.667zM5.333 14.667h21.333v2.667h-21.333v-2.667zM5.333 21.333h21.333v2.667h-21.333v-2.667z"></path>
</symbol>
<symbol id="icon-minus" viewBox="0 0 32 32">
<path d="M6.667 14.667h18.667v2.667h-18.667v-2.667z"></path>
</symbol>
<symbol id="icon-plus" viewBox="0 0 32 32">
<path d="M25.333 14.667h-8v-8h-2.667v8h-8v2.667h8v8h2.667v-8h8v-2.667z"></path>
</symbol>
<symbol id="icon-right-arrow-alt" viewBox="0 0 32 32">
<path d="M15.057 23.057l1.885 1.885 8.943-8.943-8.943-8.943-1.885 1.885 5.724 5.724h-12.781v2.667h12.781l-5.724 5.724z"></path>
</symbol>
<symbol id="icon-star" viewBox="0 0 32 32">
<path d="M8.688 19.097l-1.987 8.603c-0.023 0.092-0.036 0.197-0.036 0.306 0 0.735 0.596 1.331 1.331 1.331 0.277 0 0.535-0.085 0.748-0.23l-0.005 0.003 7.26-4.84 7.26 4.84c0.208 0.14 0.463 0.223 0.738 0.223 0.737 0 1.335-0.598 1.335-1.335 0-0.129-0.018-0.254-0.053-0.372l0.002 0.009-2.439-8.533 6.048-5.443c0.271-0.245 0.441-0.598 0.441-0.991 0-0.699-0.538-1.273-1.223-1.329l-0.005-0-7.601-0.605-3.289-7.281c-0.212-0.469-0.676-0.789-1.215-0.789s-1.002 0.32-1.211 0.781l-0.003 0.008-3.289 7.281-7.601 0.604c-0.69 0.056-1.228 0.63-1.228 1.329 0 0.374 0.154 0.712 0.402 0.955l0 0 5.619 5.476zM12.492 13.329c0.495-0.040 0.91-0.346 1.106-0.773l0.003-0.008 2.399-5.308 2.399 5.308c0.199 0.435 0.614 0.741 1.105 0.781l0.005 0 5.296 0.42-4.361 3.925c-0.379 0.341-0.529 0.867-0.391 1.357l1.671 5.847-4.981-3.321c-0.208-0.141-0.464-0.225-0.739-0.225s-0.532 0.084-0.744 0.228l0.005-0.003-5.205 3.471 1.4-6.061c0.022-0.090 0.034-0.193 0.034-0.299 0-0.374-0.154-0.712-0.402-0.954l-0-0-4.051-3.949 5.453-0.435z"></path>
</symbol>
<symbol id="icon-up-arrow-alt" viewBox="0 0 32 32">
<path d="M14.667 11.219v12.781h2.667v-12.781l5.724 5.724 1.885-1.885-8.943-8.943-8.943 8.943 1.885 1.885 5.724-5.724z"></path>
</symbol>
<symbol id="icon-youtube" viewBox="0 0 32 32">
<path d="M28.791 9.604c-0.317-1.149-1.202-2.035-2.326-2.349l-0.023-0.006c-2.088-0.573-10.44-0.583-10.44-0.583s-8.353-0.009-10.443 0.539c-1.146 0.334-2.029 1.222-2.349 2.347l-0.006 0.024c-0.551 2.088-0.556 6.419-0.556 6.419s-0.005 4.352 0.541 6.419c0.307 1.143 1.207 2.045 2.351 2.353 2.109 0.573 10.44 0.583 10.44 0.583s8.353 0.009 10.441-0.537c1.148-0.319 2.035-1.204 2.35-2.327l0.006-0.024c0.552-2.087 0.556-6.416 0.556-6.416s0.027-4.353-0.543-6.441zM13.328 20.007l0.007-8 6.943 4.007-6.949 3.993z"></path>
</symbol>
</defs>
</svg>
