<svg aria-hidden="true" style="position: absolute; width: 0; height: 0; overflow: hidden;" version="1.1" xmlns="http://www.w3.org/2000/svg" xmlns:xlink="http://www.w3.org/1999/xlink">
<defs>
<symbol id="icon-alternateFalse" viewBox="0 0 32 32">
<path d="M3.669 12.69c0.103-0.011 0.222-0.017 0.343-0.017 1.886 0 3.415 1.529 3.415 3.415 0 1.783-1.367 3.247-3.111 3.401l-0.013 0.001c-0.087 0.008-0.189 0.012-0.291 0.012-1.886 0-3.415-1.529-3.415-3.415 0-1.765 1.339-3.218 3.057-3.396l0.015-0.001zM4.35 19.129c1.544-0.169 2.735-1.466 2.735-3.041 0-1.689-1.369-3.058-3.058-3.058-0.143 0-0.284 0.010-0.422 0.029l0.016-0.002c-1.505 0.207-2.652 1.485-2.652 3.031 0 1.689 1.369 3.058 3.058 3.058 0.114 0 0.226-0.006 0.337-0.018l-0.014 0.001z"></path>
<path d="M5.323 14.313l0.393-0.003c0.008 1.134 0.008 2.269 0.002 3.403l-0.406 0.005-0.001-2.132-0.002-0.584c-0.227 0.43-0.485 0.845-0.73 1.266-0.156 0.267-0.3 0.572-0.493 0.811-0.025 0.009-0.054 0.015-0.085 0.015-0.021 0-0.041-0.003-0.061-0.007l0.002 0c-0.023-0.006-0.043-0.015-0.061-0.026l0.001 0c-0.104-0.083-1.081-1.799-1.237-2.059 0.040 0.309 0.015 0.645 0.015 0.957l-0.001 1.75-0.416 0.001c0.013-1.133-0.008-2.266 0.003-3.399l0.453 0.002c0.201 0.36 0.417 0.712 0.626 1.068 0.222 0.378 0.438 0.76 0.673 1.13 0.24-0.438 0.508-0.862 0.766-1.29 0.182-0.303 0.355-0.622 0.559-0.91zM26.134 15.121c0.080-0.005 0.162-0.008 0.243-0.006 0.3 0.005 0.606 0.166 0.811 0.378 0.255 0.265 0.374 0.634 0.366 0.998-0.009 0.371-0.147 0.723-0.42 0.977-0.218 0.207-0.513 0.334-0.838 0.334-0.016 0-0.032-0-0.048-0.001l0.002 0c-0.379-0.014-0.63-0.174-0.885-0.446-0.010 0.155-0.007 0.312-0.008 0.469 0.002 0.309 0.001 0.619-0.002 0.928-0.144 0.014-0.29 0.013-0.434-0.004 0.024-0.479 0.003-0.97 0.003-1.45 0-0.714 0.011-1.431-0.005-2.145l0.429-0.002c-0.009 0.159-0.006 0.32-0.009 0.48 0.232-0.29 0.426-0.43 0.794-0.511zM26.32 17.418c0.267-0.050 0.474-0.159 0.63-0.389 0.153-0.229 0.208-0.51 0.152-0.78-0.048-0.241-0.19-0.468-0.4-0.599-0.165-0.104-0.343-0.132-0.533-0.127-0.265 0.050-0.479 0.144-0.638 0.375-0.112 0.169-0.179 0.376-0.179 0.599 0 0.066 0.006 0.13 0.017 0.193l-0.001-0.007c0.050 0.254 0.199 0.466 0.404 0.6l0.004 0.002c0.169 0.107 0.348 0.137 0.544 0.134zM18.126 14.045c0.070 0.072 0.091 0.261 0.133 0.363-0.45 0.189-1.103 0.15-1.466 0.496-0.216 0.207-0.268 0.493-0.273 0.778 0.194-0.239 0.406-0.433 0.724-0.486 0.321-0.053 0.661 0.009 0.925 0.205 0.283 0.211 0.44 0.516 0.488 0.862 0.010 0.063 0.015 0.135 0.015 0.208 0 0.334-0.114 0.641-0.306 0.885l0.002-0.003c-0.176 0.196-0.382 0.341-0.641 0.404-0.328 0.081-0.702 0.039-0.99-0.14-0.329-0.205-0.519-0.542-0.601-0.913-0.123-0.555-0.099-1.384 0.221-1.877 0.282-0.434 0.708-0.52 1.181-0.633 0.197-0.046 0.39-0.104 0.587-0.147zM17.378 17.421c0.279-0.041 0.486-0.108 0.659-0.348 0.17-0.235 0.225-0.531 0.172-0.814-0.042-0.228-0.162-0.436-0.358-0.565-0.114-0.076-0.252-0.124-0.4-0.131l-0.002-0c-0.271 0.030-0.494 0.086-0.675 0.31-0.134 0.169-0.214 0.385-0.214 0.62 0 0.049 0.004 0.098 0.011 0.146l-0.001-0.005c0.034 0.243 0.167 0.477 0.366 0.621 0.135 0.098 0.28 0.141 0.442 0.166zM12.024 14.218c0.158-0.016 0.323-0.008 0.483-0.009-0.022 1.167 0.004 2.338-0.003 3.506l-0.421-0.004 0.001-2.065c-0.001-0.237-0.006-0.474 0.008-0.71-0.387 0.715-0.737 1.462-1.161 2.156l-0.273-0.002c-0.418-0.685-0.766-1.424-1.152-2.128 0.015 0.323 0.005 0.651 0.005 0.974l0.001 1.778c-0.14-0.004-0.28 0.006-0.42-0.001v-2.127c0.001-0.457-0.008-0.917 0.017-1.374h0.467c0.133 0.229 0.246 0.472 0.367 0.707 0.28 0.545 0.558 1.095 0.86 1.628 0.445-0.754 0.796-1.565 1.221-2.33zM14.186 15.122c0.064-0.003 0.128-0.006 0.192-0.008 0.337-0.005 0.672 0.086 0.914 0.331 0.325 0.326 0.357 0.737 0.357 1.172-0.701 0.009-1.402-0.001-2.103 0.002 0.022 0.116 0.043 0.226 0.098 0.332 0.11 0.211 0.3 0.369 0.527 0.438 0.272 0.082 0.546 0.034 0.791-0.101 0.082-0.056 0.157-0.122 0.234-0.185 0.11 0.063 0.221 0.115 0.338 0.166-0.173 0.233-0.396 0.403-0.678 0.48-0.361 0.099-0.802 0.061-1.126-0.131-0.281-0.168-0.487-0.438-0.566-0.759l-0.002-0.008c-0.096-0.387-0.042-0.811 0.168-1.151 0.203-0.328 0.487-0.491 0.854-0.578zM13.552 16.29c0.347-0.003 0.694-0.004 1.041-0.003l0.648 0c-0.063-0.266-0.126-0.513-0.374-0.669-0.181-0.114-0.401-0.131-0.61-0.114-0.226 0.052-0.415 0.155-0.544 0.353-0.087 0.134-0.126 0.279-0.162 0.432zM22.901 15.121c0.063-0.003 0.126-0.005 0.189-0.006 0.336-0.004 0.671 0.096 0.911 0.341 0.315 0.323 0.344 0.734 0.343 1.159-0.698 0.011-1.397 0.002-2.095 0.004 0.010 0.128 0.032 0.237 0.091 0.352 0.11 0.212 0.292 0.352 0.52 0.419 0.305 0.090 0.582 0.023 0.851-0.126 0.066-0.045 0.124-0.101 0.184-0.154 0.11 0.059 0.223 0.107 0.339 0.154-0.182 0.24-0.409 0.414-0.704 0.488-0.366 0.093-0.787 0.057-1.114-0.14-0.284-0.176-0.489-0.456-0.564-0.785l-0.002-0.008c-0.087-0.376-0.027-0.808 0.184-1.134s0.498-0.483 0.868-0.563zM22.245 16.288c0.332-0.001 0.665-0.005 0.997-0.002h0.704c-0.073-0.274-0.15-0.541-0.414-0.691-0.164-0.093-0.364-0.109-0.549-0.090-0.22 0.036-0.405 0.119-0.542 0.302-0.108 0.146-0.154 0.308-0.196 0.481zM30.147 15.158c0.425-0.020 0.856-0.005 1.282-0.004-0.022 0.851-0.002 1.707-0.003 2.559l-0.438-0.005v-0.874c-0.21-0.001-0.485-0.042-0.684 0.005-0.062 0.015-0.073 0.046-0.108 0.095-0.148 0.262-0.312 0.515-0.461 0.777-0.165 0.004-0.331 0.004-0.496 0.001 0.162-0.304 0.382-0.691 0.596-0.954-0.036-0.017-0.061-0.030-0.085-0.044l0.009 0.005c-0.187-0.103-0.33-0.269-0.385-0.478-0.018-0.066-0.028-0.141-0.028-0.219 0-0.161 0.044-0.313 0.12-0.442l-0.002 0.004c0.157-0.26 0.402-0.36 0.682-0.426zM30.595 16.467c0.13-0.001 0.261 0.003 0.39-0.006-0.002-0.303-0.001-0.606 0.003-0.908-0.257-0.001-0.517-0.008-0.773 0.006-0.162 0.051-0.288 0.105-0.376 0.261-0.035 0.062-0.056 0.137-0.056 0.216 0 0.049 0.008 0.096 0.022 0.14l-0.001-0.003c0.038 0.109 0.125 0.186 0.228 0.232 0.174 0.078 0.376 0.063 0.562 0.061zM19.547 15.182c0.554-0.020 1.114-0.007 1.669-0.008l-0.003 2.539c-0.138-0.002-0.277-0.008-0.414 0.011l-0.002-2.151-0.235 0.010c-0.21-0.011-0.424 0.003-0.635 0.008-0.006 0.512-0.008 1.573-0.366 1.952-0.179 0.189-0.381 0.208-0.625 0.21-0.002-0.133-0.009-0.266-0.019-0.398 0.064-0.006 0.131-0.010 0.194-0.026 0.386-0.097 0.392-1.372 0.402-1.694 0.004-0.126-0.024-0.35 0.034-0.453zM28.539 15.163l0.057-0.003c0.006 0.009 0.016 0.017 0.020 0.027 0.019 0.050-0 2.268 0 2.525l-0.372 0.003-0.027-0.006c-0.059-0.107 0-2.221-0.018-2.541 0.114 0.002 0.227-0.002 0.341-0.005zM28.19 14.205l0.428-0.002c-0.005 0.152-0.001 0.304 0.001 0.456l-0.44 0.003c0.006-0.152 0.010-0.305 0.011-0.457z"></path>
</symbol>
<symbol id="icon-arrow-back" viewBox="0 0 32 32">
<path d="M28 14.667h-19.448l7.057-7.057-1.885-1.885-10.276 10.276 10.276 10.276 1.885-1.885-7.057-7.057h19.448v-2.667z"></path>
</symbol>
<symbol id="icon-arrow_down" viewBox="0 0 32 32">
<path d="M21.724 11.057l-5.724 5.724-5.724-5.724-1.885 1.885 7.609 7.609 7.609-7.609-1.885-1.885z"></path>
</symbol>
<symbol id="icon-chevron-left" viewBox="0 0 32 32">
<path d="M17.724 8.391l-7.609 7.609 7.609 7.609 1.885-1.885-5.724-5.724 5.724-5.724-1.885-1.885z"></path>
</symbol>
<symbol id="icon-chevron-right" viewBox="0 0 32 32">
<path d="M12.943 22.6l7.609-7.609-7.609-7.609-1.885 1.885 5.724 5.724-5.724 5.724 1.885 1.885z"></path>
</symbol>
<symbol id="icon-icon-arrow_up" viewBox="0 0 32 32">
<path d="M8.391 19.057l1.885 1.885 5.724-5.724 5.724 5.724 1.885-1.885-7.609-7.609-7.609 7.609z"></path>
</symbol>
<symbol id="icon-close" viewBox="0 0 32 32">
<path d="M21.589 8.459l-5.657 5.656-5.656-5.656-1.885 1.885 5.656 5.656-5.656 5.656 1.885 1.885 5.656-5.656 5.657 5.656 1.885-1.885-5.656-5.656 5.656-5.656-1.885-1.885z"></path>
</symbol>
<symbol id="icon-down-arrow-alt" viewBox="0 0 32 32">
<path d="M24.943 16.943l-1.885-1.885-5.724 5.724v-12.781h-2.667v12.781l-5.724-5.724-1.885 1.885 8.943 8.943 8.943-8.943z"></path>
</symbol>
<symbol id="icon-facebook" viewBox="0 0 32 32">
<path d="M29.333 16.405c0-7.409-5.969-13.415-13.333-13.415s-13.333 6.005-13.333 13.413c0 6.697 4.876 12.247 11.251 13.253v-9.373h-3.387v-3.88h3.387v-2.955c0-3.361 1.989-5.219 5.036-5.219 1.459 0 2.984 0.261 2.984 0.261v3.301h-1.68c-1.657 0-2.173 1.035-2.173 2.096v2.516h3.697l-0.591 3.877h-3.107v9.373c6.373-1.005 11.249-6.555 11.249-13.251z"></path>
</symbol>
<symbol id="icon-instagram" viewBox="0 0 32 32">
<path d="M15.999 6.16c3.205 0 3.585 0.016 4.845 0.072 1.173 0.052 1.804 0.248 2.227 0.413 0.557 0.215 0.96 0.477 1.377 0.893 0.423 0.423 0.68 0.821 0.9 1.379 0.164 0.423 0.36 1.060 0.413 2.227 0.056 1.267 0.069 1.645 0.069 4.847s-0.013 3.587-0.071 4.847c-0.051 1.173-0.248 1.804-0.412 2.227-0.202 0.54-0.507 1-0.894 1.377l-0.001 0.001c-0.423 0.423-0.821 0.68-1.379 0.9-0.421 0.164-1.059 0.36-2.227 0.413-1.265 0.056-1.644 0.069-4.845 0.069s-3.587-0.013-4.847-0.071c-1.173-0.051-1.805-0.248-2.227-0.412-0.541-0.203-1.001-0.508-1.378-0.895l-0.001-0.001c-0.388-0.378-0.694-0.838-0.891-1.352l-0.009-0.026c-0.164-0.421-0.36-1.059-0.413-2.227-0.055-1.265-0.069-1.644-0.069-4.847 0-3.2 0.013-3.584 0.071-4.845 0.052-1.173 0.248-1.805 0.413-2.227 0.215-0.559 0.477-0.96 0.893-1.379 0.378-0.388 0.838-0.695 1.353-0.891l0.026-0.009c0.423-0.164 1.060-0.36 2.227-0.413 1.261-0.055 1.64-0.069 4.847-0.069zM15.999 4c-3.257 0-3.665 0.015-4.945 0.071-1.275 0.057-2.151 0.263-2.911 0.559-0.833 0.318-1.542 0.79-2.126 1.386l-0.001 0.001c-0.596 0.584-1.068 1.293-1.373 2.084l-0.014 0.040c-0.296 0.764-0.503 1.635-0.56 2.909-0.053 1.285-0.069 1.693-0.069 4.951 0 3.259 0.013 3.665 0.071 4.945 0.056 1.275 0.263 2.152 0.557 2.911 0.318 0.833 0.79 1.542 1.386 2.126l0.001 0.001c0.584 0.595 1.293 1.065 2.084 1.369l0.040 0.014c0.764 0.296 1.636 0.503 2.911 0.559 1.28 0.056 1.687 0.071 4.944 0.071 3.259 0 3.667-0.013 4.947-0.071 1.273-0.056 2.151-0.263 2.909-0.559 0.831-0.317 1.539-0.788 2.122-1.382l0.001-0.001c0.665-0.667 1.079-1.335 1.383-2.123 0.296-0.764 0.501-1.635 0.559-2.911 0.056-1.28 0.071-1.687 0.071-4.944s-0.015-3.665-0.071-4.945c-0.057-1.275-0.263-2.151-0.559-2.911-0.306-0.837-0.775-1.55-1.372-2.132l-0.001-0.001c-0.584-0.594-1.292-1.064-2.083-1.368l-0.040-0.014c-0.764-0.296-1.635-0.503-2.911-0.559-1.284-0.061-1.691-0.076-4.948-0.076z"></path>
<path d="M15.997 9.836c-3.337 0.088-6.008 2.814-6.008 6.163s2.671 6.076 6 6.163l0.008 0c3.365-0.051 6.073-2.791 6.073-6.163s-2.708-6.112-6.069-6.163l-0.005-0zM15.997 19.996c-2.208 0-3.997-1.79-3.997-3.997s1.79-3.997 3.997-3.997v0c2.208 0 3.998 1.79 3.998 3.998s-1.79 3.998-3.998 3.998v0zM23.843 9.592c0.001 0.018 0.001 0.040 0.001 0.062 0 0.795-0.645 1.44-1.44 1.44s-1.44-0.645-1.44-1.44c0-0.022 0-0.043 0.001-0.065l-0 0.003c0.034-0.768 0.665-1.378 1.439-1.378s1.405 0.61 1.439 1.375l0 0.003z"></path>
</symbol>
<symbol id="icon-left-arrow-alt" viewBox="0 0 32 32">
<path d="M16.943 23.057l-5.724-5.724h12.781v-2.667h-12.781l5.724-5.724-1.885-1.885-8.943 8.943 8.943 8.943 1.885-1.885z"></path>
</symbol>
<symbol id="icon-menu" viewBox="0 0 32 32">
<path d="M5.333 8h21.333v2.667h-21.333v-2.667zM5.333 14.667h21.333v2.667h-21.333v-2.667zM5.333 21.333h21.333v2.667h-21.333v-2.667z"></path>
</symbol>
<symbol id="icon-minus" viewBox="0 0 32 32">
<path d="M6.667 14.667h18.667v2.667h-18.667v-2.667z"></path>
</symbol>
<symbol id="icon-plus" viewBox="0 0 32 32">
<path d="M25.333 14.667h-8v-8h-2.667v8h-8v2.667h8v8h2.667v-8h8v-2.667z"></path>
</symbol>
<symbol id="icon-right-arrow-alt" viewBox="0 0 32 32">
<path d="M15.057 23.057l1.885 1.885 8.943-8.943-8.943-8.943-1.885 1.885 5.724 5.724h-12.781v2.667h12.781l-5.724 5.724z"></path>
</symbol>
<symbol id="icon-star" viewBox="0 0 32 32">
<path d="M8.688 19.097l-1.987 8.603c-0.023 0.092-0.036 0.197-0.036 0.306 0 0.735 0.596 1.331 1.331 1.331 0.277 0 0.535-0.085 0.748-0.23l-0.005 0.003 7.26-4.84 7.26 4.84c0.208 0.14 0.463 0.223 0.738 0.223 0.737 0 1.335-0.598 1.335-1.335 0-0.129-0.018-0.254-0.053-0.372l0.002 0.009-2.439-8.533 6.048-5.443c0.271-0.245 0.441-0.598 0.441-0.991 0-0.699-0.538-1.273-1.223-1.329l-0.005-0-7.601-0.605-3.289-7.281c-0.212-0.469-0.676-0.789-1.215-0.789s-1.002 0.32-1.211 0.781l-0.003 0.008-3.289 7.281-7.601 0.604c-0.69 0.056-1.228 0.63-1.228 1.329 0 0.374 0.154 0.712 0.402 0.955l0 0 5.619 5.476zM12.492 13.329c0.495-0.040 0.91-0.346 1.106-0.773l0.003-0.008 2.399-5.308 2.399 5.308c0.199 0.435 0.614 0.741 1.105 0.781l0.005 0 5.296 0.42-4.361 3.925c-0.379 0.341-0.529 0.867-0.391 1.357l1.671 5.847-4.981-3.321c-0.208-0.141-0.464-0.225-0.739-0.225s-0.532 0.084-0.744 0.228l0.005-0.003-5.205 3.471 1.4-6.061c0.022-0.090 0.034-0.193 0.034-0.299 0-0.374-0.154-0.712-0.402-0.954l-0-0-4.051-3.949 5.453-0.435z"></path>
</symbol>
<symbol id="icon-up-arrow-alt" viewBox="0 0 32 32">
<path d="M14.667 11.219v12.781h2.667v-12.781l5.724 5.724 1.885-1.885-8.943-8.943-8.943 8.943 1.885 1.885 5.724-5.724z"></path>
</symbol>
<symbol id="icon-youtube" viewBox="0 0 32 32">
<path d="M28.791 9.604c-0.317-1.149-1.202-2.035-2.326-2.349l-0.023-0.006c-2.088-0.573-10.44-0.583-10.44-0.583s-8.353-0.009-10.443 0.539c-1.146 0.334-2.029 1.222-2.349 2.347l-0.006 0.024c-0.551 2.088-0.556 6.419-0.556 6.419s-0.005 4.352 0.541 6.419c0.307 1.143 1.207 2.045 2.351 2.353 2.109 0.573 10.44 0.583 10.44 0.583s8.353 0.009 10.441-0.537c1.148-0.319 2.035-1.204 2.35-2.327l0.006-0.024c0.552-2.087 0.556-6.416 0.556-6.416s0.027-4.353-0.543-6.441zM13.328 20.007l0.007-8 6.943 4.007-6.949 3.993z"></path>
</symbol>
</defs>
</svg>
