<svg aria-hidden="true" style="position: absolute; width: 0; height: 0; overflow: hidden;" version="1.1" xmlns="http://www.w3.org/2000/svg" xmlns:xlink="http://www.w3.org/1999/xlink">
<defs>
<symbol id="icon-arrow_down" viewBox="0 0 32 32">
<path stroke-linejoin="miter" stroke-linecap="butt" stroke-miterlimit="4" stroke-width="1" d="M23.116 11.47c0.045-0.045 0.108-0.073 0.177-0.073s0.132 0.028 0.177 0.073v0l0.353 0.353c0.045 0.045 0.073 0.108 0.073 0.177s-0.028 0.132-0.073 0.177v0l-7.646 7.646c-0.045 0.045-0.108 0.073-0.177 0.073s-0.132-0.028-0.177-0.073v0l-7.646-7.646c-0.045-0.045-0.073-0.108-0.073-0.177s0.028-0.132 0.073-0.177v0l0.353-0.353c0.045-0.045 0.108-0.073 0.177-0.073s0.132 0.028 0.177 0.073v0l7.116 7.116 7.116-7.116z"></path>
</symbol>
<symbol id="icon-arrow_up" viewBox="0 0 32 32">
<path stroke-linejoin="miter" stroke-linecap="butt" stroke-miterlimit="4" stroke-width="1" d="M8.884 20.53c-0.045 0.045-0.108 0.073-0.177 0.073s-0.132-0.028-0.177-0.073v0l-0.353-0.353c-0.045-0.045-0.073-0.108-0.073-0.177s0.028-0.132 0.073-0.177v0l7.646-7.646c0.045-0.045 0.108-0.073 0.177-0.073s0.132 0.028 0.177 0.073v0l7.646 7.646c0.045 0.045 0.073 0.108 0.073 0.177s-0.028 0.132-0.073 0.177v0l-0.353 0.353c-0.045 0.045-0.108 0.073-0.177 0.073s-0.132-0.028-0.177-0.073v0l-7.116-7.116-7.116 7.116z"></path>
</symbol>
<symbol id="icon-close" viewBox="0 0 32 32">
<path d="M22.835 22.364l-0.471 0.471c-0.121 0.121-0.287 0.195-0.471 0.195s-0.351-0.075-0.471-0.195l-5.421-5.42-5.421 5.42c-0.121 0.121-0.287 0.195-0.472 0.195s-0.351-0.075-0.472-0.195l-0.471-0.471c-0.121-0.121-0.195-0.287-0.195-0.471s0.075-0.351 0.195-0.471l5.42-5.421-5.42-5.421c-0.121-0.121-0.195-0.287-0.195-0.472s0.075-0.351 0.195-0.472v0l0.47-0.471c0.261-0.26 0.683-0.26 0.944 0l5.42 5.42 5.422-5.42c0.26-0.26 0.683-0.26 0.943 0l0.471 0.47c0.26 0.261 0.26 0.683 0 0.944l-5.42 5.42 5.42 5.422c0.26 0.26 0.26 0.683 0 0.943z"></path>
</symbol>
<symbol id="icon-facebook" viewBox="0 0 32 32">
<path fill="#fff" style="fill: var(--color1, #fff)" d="M29.333 16.405c0-7.409-5.969-13.415-13.333-13.415s-13.333 6.005-13.333 13.413c0 6.697 4.876 12.247 11.251 13.253v-9.373h-3.387v-3.88h3.387v-2.955c0-3.361 1.989-5.219 5.036-5.219 1.459 0 2.984 0.261 2.984 0.261v3.301h-1.68c-1.657 0-2.173 1.035-2.173 2.096v2.516h3.697l-0.591 3.877h-3.107v9.373c6.373-1.005 11.249-6.555 11.249-13.251z"></path>
</symbol>
<symbol id="icon-instagram" viewBox="0 0 32 32">
<path fill="#fff" style="fill: var(--color1, #fff)" d="M15.999 6.16c3.205 0 3.585 0.016 4.845 0.072 1.173 0.052 1.804 0.248 2.227 0.413 0.557 0.215 0.96 0.477 1.377 0.893 0.423 0.423 0.68 0.821 0.9 1.379 0.164 0.423 0.36 1.060 0.413 2.227 0.056 1.267 0.069 1.645 0.069 4.847s-0.013 3.587-0.071 4.847c-0.051 1.173-0.248 1.804-0.412 2.227-0.202 0.54-0.507 1-0.894 1.377l-0.001 0.001c-0.423 0.423-0.821 0.68-1.379 0.9-0.421 0.164-1.059 0.36-2.227 0.413-1.265 0.056-1.644 0.069-4.845 0.069s-3.587-0.013-4.847-0.071c-1.173-0.051-1.805-0.248-2.227-0.412-0.541-0.203-1.001-0.508-1.378-0.895l-0.001-0.001c-0.388-0.378-0.694-0.838-0.891-1.352l-0.009-0.026c-0.164-0.421-0.36-1.059-0.413-2.227-0.055-1.265-0.069-1.644-0.069-4.847 0-3.2 0.013-3.584 0.071-4.845 0.052-1.173 0.248-1.805 0.413-2.227 0.215-0.559 0.477-0.96 0.893-1.379 0.378-0.388 0.838-0.695 1.353-0.891l0.026-0.009c0.423-0.164 1.060-0.36 2.227-0.413 1.261-0.055 1.64-0.069 4.847-0.069zM15.999 4c-3.257 0-3.665 0.015-4.945 0.071-1.275 0.057-2.151 0.263-2.911 0.559-0.833 0.318-1.542 0.79-2.126 1.386l-0.001 0.001c-0.596 0.584-1.068 1.293-1.373 2.084l-0.014 0.040c-0.296 0.764-0.503 1.635-0.56 2.909-0.053 1.285-0.069 1.693-0.069 4.951 0 3.259 0.013 3.665 0.071 4.945 0.056 1.275 0.263 2.152 0.557 2.911 0.318 0.833 0.79 1.542 1.386 2.126l0.001 0.001c0.584 0.595 1.293 1.065 2.084 1.369l0.040 0.014c0.764 0.296 1.636 0.503 2.911 0.559 1.28 0.056 1.687 0.071 4.944 0.071 3.259 0 3.667-0.013 4.947-0.071 1.273-0.056 2.151-0.263 2.909-0.559 0.831-0.317 1.539-0.788 2.122-1.382l0.001-0.001c0.665-0.667 1.079-1.335 1.383-2.123 0.296-0.764 0.501-1.635 0.559-2.911 0.056-1.28 0.071-1.687 0.071-4.944s-0.015-3.665-0.071-4.945c-0.057-1.275-0.263-2.151-0.559-2.911-0.306-0.837-0.775-1.55-1.372-2.132l-0.001-0.001c-0.584-0.594-1.292-1.064-2.083-1.368l-0.040-0.014c-0.764-0.296-1.635-0.503-2.911-0.559-1.284-0.061-1.691-0.076-4.948-0.076z"></path>
<path fill="#fff" style="fill: var(--color1, #fff)" d="M15.997 9.836c-3.337 0.088-6.008 2.814-6.008 6.163s2.671 6.076 6 6.163l0.008 0c3.365-0.051 6.073-2.791 6.073-6.163s-2.708-6.112-6.069-6.163l-0.005-0zM15.997 19.996c-2.208 0-3.997-1.79-3.997-3.997s1.79-3.997 3.997-3.997v0c2.208 0 3.998 1.79 3.998 3.998s-1.79 3.998-3.998 3.998v0zM23.843 9.592c0.001 0.018 0.001 0.040 0.001 0.062 0 0.795-0.645 1.44-1.44 1.44s-1.44-0.645-1.44-1.44c0-0.022 0-0.043 0.001-0.065l-0 0.003c0.034-0.768 0.665-1.378 1.439-1.378s1.405 0.61 1.439 1.375l0 0.003z"></path>
</symbol>
<symbol id="icon-left_arrow" viewBox="0 0 32 32">
<path d="M16.943 23.057l-5.724-5.724h12.781v-2.667h-12.781l5.724-5.724-1.885-1.885-8.943 8.943 8.943 8.943 1.885-1.885z"></path>
</symbol>
<symbol id="icon-logo" viewBox="0 0 75 32">
<path d="M8.315 8.259c4.376-0.408 8.253 2.811 8.656 7.186s-2.819 8.25-7.195 8.649c-4.37 0.399-8.238-2.818-8.64-7.188s2.81-8.24 7.179-8.648zM9.902 23.253c3.907-0.469 6.693-4.017 6.221-7.923s-4.021-6.69-7.927-6.216c-3.902 0.474-6.683 4.020-6.212 7.922s4.016 6.685 7.919 6.217z"></path>
<path d="M12.167 12.038l0.915-0.006c0.018 2.641 0.019 5.283 0.004 7.925l-0.946 0.012-0.002-4.964-0.005-1.359c-0.528 1.003-1.129 1.968-1.701 2.947-0.362 0.62-0.699 1.332-1.147 1.89-0.058 0.021-0.125 0.033-0.195 0.033-0.050 0-0.098-0.006-0.144-0.018l0.004 0.001c-0.053-0.013-0.1-0.034-0.142-0.061l0.002 0.001c-0.242-0.193-2.517-4.189-2.88-4.795 0.093 0.719 0.035 1.503 0.034 2.229l-0.003 4.076-0.968 0.004c0.030-2.638-0.017-5.277 0.008-7.915l1.054 0.005c0.469 0.838 0.971 1.659 1.457 2.486 0.517 0.88 1.019 1.77 1.568 2.631 0.558-1.019 1.183-2.007 1.783-3.003 0.425-0.705 0.826-1.448 1.303-2.119zM60.627 13.921c0.187-0.012 0.379-0.017 0.566-0.014 0.698 0.012 1.411 0.385 1.888 0.88 0.596 0.616 0.872 1.476 0.852 2.324-0.020 0.863-0.344 1.683-0.979 2.275-0.563 0.524-1.284 0.805-2.056 0.776-0.883-0.033-1.469-0.405-2.061-1.038-0.023 0.362-0.016 0.728-0.019 1.091 0.004 0.72 0.003 1.441-0.003 2.162-0.139 0.015-0.3 0.023-0.463 0.023-0.193 0-0.383-0.012-0.57-0.034l0.022 0.002c0.055-1.115 0.006-2.258 0.007-3.376 0-1.664 0.026-3.332-0.011-4.995l0.999-0.004c-0.020 0.371-0.015 0.746-0.021 1.118 0.541-0.676 0.993-1.002 1.848-1.19zM61.060 19.27c0.621-0.117 1.103-0.37 1.467-0.906 0.254-0.374 0.405-0.836 0.405-1.332 0-0.172-0.018-0.339-0.052-0.5l0.003 0.016c-0.112-0.56-0.443-1.089-0.931-1.396-0.384-0.241-0.8-0.307-1.243-0.295-0.616 0.117-1.115 0.336-1.484 0.873-0.348 0.505-0.497 1.225-0.38 1.826 0.117 0.592 0.463 1.087 0.94 1.397l0.008 0.005c0.394 0.248 0.81 0.32 1.268 0.311zM41.979 11.414c0.163 0.167 0.214 0.609 0.31 0.846-1.049 0.44-2.569 0.35-3.412 1.155-0.505 0.482-0.625 1.148-0.635 1.812 0.451-0.558 0.946-1.009 1.685-1.132 0.748-0.125 1.54 0.019 2.153 0.475 0.659 0.491 1.025 1.201 1.136 2.007 0.126 0.925-0.104 1.798-0.672 2.537-0.411 0.456-0.89 0.793-1.492 0.941-0.763 0.187-1.634 0.090-2.306-0.327-0.767-0.476-1.208-1.262-1.399-2.127-0.286-1.292-0.23-3.223 0.515-4.37 0.657-1.011 1.648-1.211 2.75-1.474 0.458-0.109 0.909-0.242 1.368-0.344zM40.236 19.275c0.649-0.096 1.132-0.251 1.536-0.81 0.396-0.547 0.524-1.238 0.401-1.895-0.099-0.53-0.379-1.016-0.834-1.316-0.264-0.177-0.586-0.289-0.933-0.306l-0.004-0c-0.632 0.071-1.152 0.202-1.572 0.723-0.395 0.489-0.563 1.15-0.476 1.77 0.080 0.566 0.389 1.11 0.853 1.447 0.314 0.228 0.651 0.328 1.029 0.386zM27.77 11.817c0.369-0.037 0.753-0.020 1.125-0.022-0.050 2.719 0.010 5.445-0.006 8.164l-0.979-0.010 0.002-4.809c-0.003-0.55-0.014-1.103 0.020-1.653-0.902 1.666-1.717 3.405-2.704 5.021l-0.636-0.004c-0.974-1.595-1.783-3.314-2.683-4.954 0.035 0.752 0.011 1.515 0.012 2.268l0.002 4.14c-0.326-0.009-0.651 0.013-0.978-0.003l0-4.953c0.001-1.065-0.020-2.136 0.038-3.2l1.089 0.001c0.31 0.531 0.573 1.099 0.854 1.647 0.653 1.268 1.298 2.55 2.002 3.791 1.035-1.755 1.854-3.644 2.843-5.426zM32.805 13.923c0.15-0.008 0.299-0.014 0.449-0.017 0.784-0.013 1.564 0.201 2.129 0.769 0.756 0.76 0.831 1.717 0.831 2.729-1.631 0.021-3.265-0.002-4.896 0.006 0.050 0.27 0.101 0.527 0.229 0.773 0.257 0.488 0.69 0.854 1.213 1.016l0.015 0.004c0.635 0.192 1.273 0.080 1.843-0.235 0.191-0.13 0.366-0.282 0.544-0.43 0.256 0.146 0.516 0.268 0.786 0.385-0.402 0.543-0.922 0.939-1.578 1.119-0.841 0.23-1.866 0.14-2.623-0.306-0.655-0.391-1.133-1.021-1.316-1.766l-0.004-0.020c-0.224-0.902-0.099-1.888 0.39-2.681 0.471-0.764 1.133-1.142 1.989-1.347zM31.328 16.641c0.808-0.006 1.616-0.009 2.424-0.007l1.51 0.001c-0.147-0.62-0.295-1.194-0.872-1.558-0.422-0.265-0.934-0.306-1.419-0.265-0.524 0.121-0.967 0.36-1.266 0.822-0.203 0.313-0.293 0.649-0.377 1.007zM53.099 13.921c0.147-0.008 0.293-0.012 0.44-0.015 0.782-0.008 1.563 0.224 2.121 0.794 0.734 0.751 0.801 1.709 0.798 2.699-1.625 0.025-3.253 0.005-4.878 0.009 0.022 0.296 0.074 0.551 0.212 0.818 0.256 0.494 0.681 0.82 1.211 0.975 0.709 0.208 1.355 0.055 1.982-0.294 0.153-0.105 0.289-0.234 0.428-0.358 0.258 0.139 0.519 0.251 0.79 0.359-0.425 0.559-0.954 0.963-1.64 1.137-0.853 0.216-1.834 0.134-2.595-0.326-0.676-0.408-1.14-1.081-1.318-1.847-0.203-0.875-0.061-1.882 0.428-2.641s1.158-1.126 2.021-1.312zM51.57 16.64c0.773-0.002 1.548-0.013 2.321-0.005l1.639-0.001c-0.17-0.638-0.348-1.258-0.965-1.609-0.382-0.217-0.847-0.254-1.278-0.211-0.512 0.085-0.944 0.277-1.262 0.705-0.252 0.338-0.359 0.717-0.456 1.12zM69.97 14.007c0.989-0.046 1.994-0.012 2.985-0.009-0.051 1.981-0.005 3.976-0.006 5.959l-1.019-0.011-0-2.036c-0.487-0.003-1.128-0.098-1.593 0.012-0.145 0.035-0.171 0.108-0.252 0.22-0.344 0.61-0.727 1.199-1.072 1.81-0.385 0.008-0.771 0.009-1.156 0.003 0.377-0.709 0.889-1.609 1.388-2.223-0.083-0.040-0.14-0.070-0.197-0.102l0.021 0.011c-0.436-0.24-0.768-0.627-0.896-1.111-0.133-0.506-0.060-1.082 0.21-1.531 0.364-0.605 0.935-0.838 1.589-0.992zM71.015 17.055c0.301-0.002 0.608 0.007 0.908-0.015-0.004-0.705-0.002-1.409 0.005-2.114-0.598-0.002-1.204-0.018-1.801 0.014-0.377 0.118-0.671 0.245-0.874 0.608-0.135 0.241-0.171 0.56-0.080 0.822 0.088 0.254 0.292 0.432 0.532 0.54 0.405 0.183 0.876 0.147 1.31 0.143zM45.287 14.062c1.291-0.047 2.593-0.016 3.885-0.019l-0.006 5.913c-0.322-0.005-0.645-0.018-0.964 0.026l-0.005-5.008-0.548 0.022c-0.489-0.024-0.989 0.008-1.478 0.020-0.014 1.192-0.018 3.663-0.853 4.544-0.416 0.44-0.887 0.485-1.456 0.49-0.004-0.311-0.021-0.618-0.043-0.928 0.148-0.014 0.305-0.024 0.45-0.060 0.898-0.227 0.914-3.195 0.937-3.944 0.009-0.292-0.056-0.816 0.080-1.054zM66.227 14.018l0.132-0.008c0.016 0.021 0.038 0.039 0.048 0.064 0.044 0.117-0.001 5.281-0.001 5.879l-0.866 0.006-0.064-0.013c-0.138-0.25 0-5.172-0.043-5.916 0.265 0.003 0.529-0.005 0.793-0.012zM65.416 11.788l0.996-0.003c-0.010 0.353-0.002 0.707 0.003 1.061l-1.025 0.008c0.015-0.355 0.024-0.71 0.027-1.065z"></path>
</symbol>
<symbol id="icon-menu" viewBox="0 0 32 32">
<path d="M5.333 8h21.334v2.667h-21.334v-2.667zM5.333 14.667h21.334v2.666h-21.334v-2.666zM5.333 21.333h21.334v2.667h-21.334v-2.667z"></path>
</symbol>
<symbol id="icon-right_arrow" viewBox="0 0 32 32">
<path d="M15.057 23.057l1.885 1.885 8.943-8.943-8.943-8.943-1.885 1.885 5.724 5.724h-12.781v2.667h12.781l-5.724 5.724z"></path>
</symbol>
<symbol id="icon-youtube" viewBox="0 0 32 32">
<path fill="#fff" style="fill: var(--color1, #fff)" d="M28.791 9.604c-0.317-1.149-1.202-2.035-2.326-2.349l-0.023-0.006c-2.088-0.573-10.441-0.583-10.441-0.583s-8.352-0.009-10.441 0.539c-1.146 0.334-2.029 1.222-2.349 2.347l-0.006 0.024c-0.551 2.088-0.556 6.419-0.556 6.419s-0.005 4.352 0.541 6.419c0.307 1.143 1.207 2.045 2.351 2.353 2.109 0.573 10.44 0.583 10.44 0.583s8.353 0.009 10.44-0.537c1.149-0.318 2.036-1.203 2.352-2.327l0.006-0.024c0.552-2.087 0.556-6.416 0.556-6.416s0.027-4.353-0.543-6.441zM13.328 20.007l0.007-8 6.943 4.007-6.949 3.993z"></path>
</symbol>
</defs>
</svg>
